<?xml version="1.0" encoding="utf-8"?>
<!-- Generator: Adobe Illustrator 27.5.0, SVG Export Plug-In . SVG Version: 6.00 Build 0)  -->
<svg version="1.1" xmlns="http://www.w3.org/2000/svg" xmlns:xlink="http://www.w3.org/1999/xlink" x="0px" y="0px"
	 viewBox="0 0 500 500" style="enable-background:new 0 0 500 500;" xml:space="preserve">
<g id="BACKGROUND">
	<rect style="fill:#E9B98D;" width="500" height="500"/>
</g>
<g id="OBJECTS">
	<g>
		<polygon style="fill:#1C1C20;" points="500,500 0,500 0,463.701 500,151.826 		"/>
		<polygon style="fill:#E4A771;" points="0,0 0,82.125 216,0 		"/>
	</g>
	<g>
		<defs>
			<rect id="SVGID_1_" width="500" height="500"/>
		</defs>
		<clipPath id="SVGID_00000045619843479408704780000008178478771831731382_">
			<use xlink:href="#SVGID_1_"  style="overflow:visible;"/>
		</clipPath>
		<g style="clip-path:url(#SVGID_00000045619843479408704780000008178478771831731382_);">
			<g>
				<path style="fill:#1C1C20;" d="M-5.391,165.033L246.826,52.972c9.498-4.22,20.195,5.733,20.195,16.126v176.609
					c0,10.413-5.409,20.079-14.285,25.524L-5.391,429.62V165.033z"/>
				<g>
					<path style="fill:#F2E1C5;" d="M0,168.768L234.81,64.442c9.505-4.223,20.21,2.735,20.21,13.136v159.974
						c0,9.444-4.906,18.21-12.955,23.149L0,409.233V168.768z"/>
					<g>
						<defs>
							<path id="SVGID_00000060711487632324630350000010349152854194105729_" d="M0,168.768L234.81,64.442
								c9.505-4.223,20.21,2.735,20.21,13.136v160.974c0,9.444-4.906,18.21-12.955,23.149L0,410.233V168.768z"/>
						</defs>
						<clipPath id="SVGID_00000077321554309089059000000015722918723636504244_">
							<use xlink:href="#SVGID_00000060711487632324630350000010349152854194105729_"  style="overflow:visible;"/>
						</clipPath>
						<g style="clip-path:url(#SVGID_00000077321554309089059000000015722918723636504244_);">
							<path style="fill:#879B5F;" d="M240.026,117.249c0,0-10.494-4.905-24.827-2.259c-14.333,2.646-16.088-5.479-31.143,8.599
								c-15.056,14.077-22.811,18.711-25.722,24.077S157,152.161,157,152.161s63.374,4.912,63.98,2.345
								C221.585,151.939,240.026,117.249,240.026,117.249L240.026,117.249z"/>
							<path style="fill:#626129;" d="M-13.006,182.328c0,0,13.054-6.689,35.53-12.342c22.476-5.653,36.341-14.641,52.742-15.48
								c16.401-0.84,18.996-2.976,37.698-3.575s38.536-8.665,61.286-8.631c22.75,0.033,35.417,0.877,41.75-0.211
								c6.333-1.089,15.667,56.779,15.667,56.779l-244.672,22.75V182.328z"/>
							<g>
								<path style="fill:#043F22;" d="M198.513,150.456c0,0,9.571-13.874,23.362-30.001c13.792-16.127,9.673-12.852,23.866-22.82
									c14.193-9.969,21.28-19.862,21.28-19.862l-9.569,73.158l-70.196,24.494C187.256,175.425,192.853,158.273,198.513,150.456z"
									/>
								<path style="fill:#626129;" d="M261.906,117.249c0,0-21.914,5.402-21.88,22.576c0,0-16.197,9.411-15.078,19.507
									l45.102-7.172L261.906,117.249z"/>
								<path style="fill:#C2A131;" d="M261.258,148.144c0,0-8.261-9.696-40.278,6.361c-32.017,16.058-59.736,36.981-59.736,36.981
									l78.782,9.878l29.128-38.792L261.258,148.144z"/>
							</g>
							<g>
								<g>
									<rect x="174.759" y="173.303" style="fill:#7B3E19;" width="11.241" height="15.363"/>
									<rect x="153.167" y="166.959" style="fill:#A45221;" width="21.592" height="22.524"/>
								</g>
								<g>
									<path style="fill:#043F22;" d="M156.878,184.243c-0.891-4.819-3.387-22.985-3.387-22.985s-2.496,18.167-3.387,22.985
										c-0.891,4.819,3.387,5.348,3.387,5.348S157.769,189.062,156.878,184.243z"/>
									<path style="fill:#043F22;" d="M151.481,180.173c-1.015-5.487-3.857-26.174-3.857-26.174s-2.842,20.687-3.857,26.174
										c-1.015,5.487,3.857,6.09,3.857,6.09S152.496,185.66,151.481,180.173z"/>
									<path style="fill:#043F22;" d="M129.297,181.422c-1.015-5.487-3.857-26.174-3.857-26.174s-2.842,20.687-3.857,26.174
										c-1.015,5.487,3.857,6.09,3.857,6.09S130.312,186.909,129.297,181.422z"/>
									<path style="fill:#043F22;" d="M146.086,179.05c-1.222-6.607-4.644-31.514-4.644-31.514s-3.422,24.907-4.644,31.514
										c-1.222,6.607,4.644,7.332,4.644,7.332S147.308,185.656,146.086,179.05z"/>
									<path style="fill:#043F22;" d="M138.282,177.362c-1.368-7.398-5.201-35.29-5.201-35.29s-3.832,27.891-5.201,35.29
										c-1.368,7.398,5.201,8.211,5.201,8.211S139.65,184.76,138.282,177.362z"/>
								</g>
								<g>
									<path style="fill:#C2A131;" d="M119.833,180.985c0,0-2.672-11.319-10.503-11.985c0,0-1.664-2.341-3.497-1.254
										c0,0,0.667-4.413-4.667-2.913c0,0-3.167-6.667-11.5-5.5c-8.333,1.167-13,12.471-13.667,21.652
										c-0.667,9.181,41,3.34,41,3.34L119.833,180.985z"/>
									<path style="fill:#043F22;" d="M79.833,175.425c0,0-3.333-12.278-14.167-11.602c-10.833,0.676-11.333,9.481-11.333,9.481
										s-8.667,1.01-8.833,12.853c-0.167,11.843,36.833,1.437,36.833,1.437L79.833,175.425z"/>
									<path style="fill:#626129;" d="M69,184.628c0,0,2.167-11.06,10.833-11.941c8.667-0.881,9.667,10.821,9.667,10.821
										l-13.508,5.975L69,184.628z"/>
								</g>
								<path style="fill:#879B5F;" d="M241.667,181.845c0,0,5.849-17.774,19.591-21.81c13.742-4.036,2.597,28.631,2.597,28.631
									L241.667,181.845z"/>
								<path style="fill:#626129;" d="M190.701,188.309c1.994-0.31,17.812-2.404,26.45-5.69c8.638-3.286,14.989-4.933,27.942-1.634
									c12.953,3.299,14.498,2.715,14.498,2.715l-0.621,20.332l-46.606-5.164L190.701,188.309z"/>
								<path style="fill:#626129;" d="M174.759,189.483c0,0,1.519-6.15,9.297-6.817c7.778-0.667,9.277,6.926,9.277,6.926
									L186,193.999L174.759,189.483z"/>
							</g>
							<path style="fill:#879B5F;" d="M0,206.877c0,0,55.538-31.46,129.436-24.431c73.897,7.028,78.788,10.608,94.676,12.096
								s28.049,5.161,35.479,7.258c7.43,2.097,3.049,33.071,3.049,33.071L-8.667,374.499L0,206.877z"/>
							<g>
								<path style="fill:#043F22;" d="M124.322,245.521c0,0-1.701-8.183,5.113-9.102c0,0,1.574-6.612,7.194-5.391
									c5.62,1.221,6.998,7.908,6.998,7.908s1.04-3.465,6.353-0.937c5.313,2.528,6.592,7.54,6.592,7.54l-27.137,2.803
									L124.322,245.521z"/>
								<g>
									<path style="fill:#043F22;" d="M201.087,219.839c-1.865-10.082-7.087-48.09-7.087-48.09s-5.222,38.008-7.087,48.09
										c-1.865,10.082,7.087,11.189,7.087,11.189S202.952,229.921,201.087,219.839z"/>
									<path style="fill:#043F22;" d="M217.528,214.87c-1.618-8.744-6.147-41.71-6.147-41.71s-4.529,32.966-6.147,41.71
										c-1.617,8.744,6.147,9.704,6.147,9.704S219.145,223.614,217.528,214.87z"/>
									<path style="fill:#043F22;" d="M232.291,214.072c-1.356-7.33-5.153-34.965-5.153-34.965s-3.797,27.635-5.153,34.965
										c-1.356,7.33,5.153,8.135,5.153,8.135S233.647,221.402,232.291,214.072z"/>
								</g>
								<path style="fill:#C2A131;" d="M70.5,272.5c0,0,13.145-28.834,53.822-30.501c40.678-1.667,53.428-0.249,53.428-0.249
									L118,300.666l-31.17-14.991L70.5,272.5z"/>
								<path style="fill:#043F22;" d="M139.623,253.422c0,0,2.118-8.973,8.326-9.501c0,0,1.319-1.855,2.772-0.994
									c0,0-0.528-3.498,3.699-2.309c0,0,2.51-5.285,9.116-4.36c6.606,0.925,10.305,9.886,10.834,17.164
									s-32.502,2.648-32.502,2.648L139.623,253.422z"/>
							</g>
							<path style="fill:#626129;" d="M263.364,215.034c0,0-30.364-9.429-55.698,2.601c-25.333,12.031-34.019,23.733-54.176,29.549
								c-20.157,5.815-138.605,47.675-158.881,71.745l-0.951,61.612l-5.325,82.673l144.748-61.881L273.62,297.5L263.364,215.034z"/>
							<path style="fill:#043F22;" d="M136.63,291.171c0,0,12.537-11.328,41.703-28C207.5,246.499,250,254.078,250,254.078
								l-14.148,99.092l-85.871,33.974L136.63,291.171z"/>
						</g>
					</g>
				</g>
			</g>
			<g>
				<path style="fill:#1C1C20;" d="M301.368,29.872l162.38-60.473c7.63-2.842,15.752,2.801,15.752,10.943V112.68
					c0,13.241-6.89,25.529-18.187,32.435L280.082,255.913V64.622C280.082,50.458,288.424,35.623,301.368,29.872z"/>
				<g>
					<path style="fill:#F2E1C5;" d="M305.394,33.213l143.189-52.308c9.189-3.357,18.917,3.446,18.917,13.229v116.322
						c0,10.451-5.439,20.148-14.356,25.598L285.473,238.526V63.864C285.473,50.608,293.28,38.595,305.394,33.213z"/>
					<g>
						<defs>
							<path id="SVGID_00000048502651132121199410000003460908801470432130_" d="M305.394,33.213l143.189-52.308
								c9.189-3.357,18.917,3.446,18.917,13.229v116.322c0,10.451-5.439,20.148-14.356,25.598L285.473,238.526V63.864
								C285.473,50.608,293.28,38.595,305.394,33.213z"/>
						</defs>
						<clipPath id="SVGID_00000002357817780557687140000017847907334025088957_">
							<use xlink:href="#SVGID_00000048502651132121199410000003460908801470432130_"  style="overflow:visible;"/>
						</clipPath>
						<g style="clip-path:url(#SVGID_00000002357817780557687140000017847907334025088957_);">
							<g>
								<ellipse style="fill:#C2A131;" cx="347.929" cy="79.192" rx="19.125" ry="16.322"/>
								<path style="fill:#043F22;" d="M409.784,61.429c0,0,10.925-10.686,19.838-12.11c8.913-1.425,7.174-0.356,14.565-3.206
									c7.392-2.849,6.327-1.781,14.251-5.165c7.924-3.384,15.098-7.658,15.207-8.014c0.109-0.356,0,22.44,0,22.44l-51.849,9.617
									L409.784,61.429z"/>
								<g>
									<path style="fill:#626129;" d="M443.752,56.287c0,0-1.957-4.297-6.739-3.051c0,0-6-2.61-8.044,4.096l1.522,1.78
										L443.752,56.287z"/>
									<path style="fill:#C2A131;" d="M427.23,59.113c0,0,0.369-4.835-4.13-4.808c0,0-7.502-4.987-13.316,0
										c0,0-7.989,2.315-7.771,8.549c0.217,6.233,13.696,3.74,13.696,3.74L427.23,59.113z"/>
								</g>
							</g>
							<path style="fill:#879B5F;" d="M475.34,48.96c0,0-0.5,0.2-13.544,3.128c-13.044,2.929-25.203,4.175-34.559,5.422
								c-9.355,1.247-20.66,1.959-27.399,4.809c-6.739,2.849-8.044,3.562-17.392,6.589c-9.348,3.028-22.609,5.699-29.566,11.932
								c-6.957,6.233-4.549,7.48-4.549,7.48l118.464,2.315l14.348-22.618L475.34,48.96z"/>
							<path style="fill:#626129;" d="M345.707,81.019c0,0,0.367-1.126,16.522-1.126c16.155,0,18.479,0.534,33.696,0.563
								c15.218,0.029,17.841,1.097,31.312,0.563c13.471-0.534,18.471-1.155,26.95-0.489c8.478,0.667,14.565,2.269,14.565,2.269
								l-22.174,22.262l-39.349-4.389l-57.949-16.092L345.707,81.019z"/>
							<path style="fill:#043F22;" d="M428.97,98.294c0,0-10.634-6.328-20.435-7.658c-9.801-1.33-9.565-3.384-24.348-5.699
								c-14.783-2.315-13.838-1.379-24.131-3.028c-10.293-1.648-5.217-2.315-16.957-3.206c-11.739-0.891-6.522-3.384-18.044-3.028
								c-11.522,0.356-7.392,2.78-15.218-0.035c-7.826-2.815-3.877-1.34-13.479-3.77c-9.601-2.429-9.02-2.253-12.826-2.074
								c-3.806,0.179-1.699,94.034-1.699,94.034l126.483-11.22L428.97,98.294z"/>
							<g>
								<g>
									<path style="fill:#879B5F;" d="M434.424,95.131c0,0-11.57-5.031-18.961,7.257c-7.391,12.288,17.174,4.63,17.392,3.74
										C433.071,105.237,434.424,95.131,434.424,95.131z"/>
									<path style="fill:#626129;" d="M427.757,105.062c-1.553,0.506-17.483-2.315-31.179,4.452
										c-13.696,6.768-14.131,17.765-14.131,17.765s28.479,2.36,28.914,1.826c0.435-0.534,15.877-16.028,15.877-16.028
										L427.757,105.062z"/>
									<g>
										<path style="fill:#043F22;" d="M447.023,93.574c-0.861-3.812-3.271-18.183-3.271-18.183s-2.41,14.371-3.271,18.183
											c-0.861,3.812,3.271,4.231,3.271,4.231S447.884,97.386,447.023,93.574z"/>
										<path style="fill:#043F22;" d="M438.36,94.784c-0.972-4.305-3.694-20.533-3.694-20.533s-2.721,16.228-3.693,20.533
											c-0.972,4.305,3.693,4.777,3.693,4.777S439.332,99.089,438.36,94.784z"/>
										<path style="fill:#043F22;" d="M454.41,91.67c-0.736-3.261-2.798-15.556-2.798-15.556s-2.062,12.295-2.798,15.556
											c-0.736,3.261,2.798,3.619,2.798,3.619S455.147,94.931,454.41,91.67z"/>
									</g>
								</g>
								<path style="fill:#C2A131;" d="M471.512,79.191c0,0-40.828,13.578-54.42,33.193c-13.592,19.615-15.084,23.943-15.084,23.943
									s80.78-13.961,79.136-15.645C479.5,118.999,471.512,79.191,471.512,79.191z"/>
								<g>
									<rect x="350" y="122.399" style="fill:#7B3E19;" width="5.399" height="8.396"/>
									<rect x="371.726" y="119.957" style="fill:#7B3E19;" width="10.676" height="10.677"/>
									<rect x="355.399" y="114.469" style="fill:#A45221;" width="16.472" height="16.327"/>
								</g>
								<g>
									<path style="fill:#626129;" d="M274.364,119.799c0,0,13.124-7.094,23.13-1.197c10.006,5.897,16.611,9.753,16.611,9.753
										s18.466,0.118,21.388,9.935c2.921,9.818-57.75,11.208-57.75,11.208L274.364,119.799z"/>
									<path style="fill:#C2A131;" d="M342.164,136.327c0,0-18.164,1.018-30.914-0.155s-12.006-1.217-18.892-1.445
										c-6.886-0.228-7.372,1.855-14.615,3.564c-7.243,1.708-5.574,18.442-5.574,18.442l65.498-6.277L342.164,136.327z"/>
								</g>
							</g>
							<path style="fill:#879B5F;" d="M270.049,152.161c0,0,14.284-4.175,33.117-6.918c18.833-2.743,28.462-4.27,38.997-11.458
								c10.536-7.187,13.302-10.034,29.789-8.029c16.487,2.005,18.336,0.295,33.149,0s14.023,0.044,33.71-3.356
								c19.688-3.4,34.88-11.104,34.88-11.104l-10.861,81.832L273.62,297.5L270.049,152.161z"/>
							<g>
								<path style="fill:#043F22;" d="M374.877,166.085c-1.234-6.726-4.69-32.081-4.69-32.081s-3.456,25.355-4.69,32.081
									c-1.234,6.725,4.69,7.464,4.69,7.464S376.111,172.81,374.877,166.085z"/>
								<path style="fill:#043F22;" d="M362.756,172.8c-1.101-6.002-4.185-28.631-4.185-28.631s-3.084,22.629-4.185,28.631
									c-1.101,6.002,4.185,6.662,4.185,6.662S363.857,178.802,362.756,172.8z"/>
								<path style="fill:#043F22;" d="M383.249,160.864c-0.873-4.758-3.318-22.695-3.318-22.695s-2.444,17.937-3.317,22.695
									c-0.873,4.758,3.317,5.28,3.317,5.28S384.122,165.622,383.249,160.864z"/>
							</g>
							<path style="fill:#626129;" d="M335.493,193.998c0,0,24.7-31.313,59.096-43.89c34.397-12.577,73.911-40.358,73.911-40.358
								l14.667,3.604L476,190.498l-194.658,81.68L335.493,193.998z"/>
							<path style="fill:#043F22;" d="M396.295,201.965c0,0-28.562-13.029-60.802-12.568c-32.24,0.461-60.769,12.323-60.769,12.323
								l5.358,80.195l111.43-51.395L396.295,201.965z"/>
						</g>
					</g>
				</g>
			</g>
		</g>
	</g>
	<g>
		<defs>
			<rect id="SVGID_00000026124939110029100960000012046614021682050983_" width="500" height="500"/>
		</defs>
		<clipPath id="SVGID_00000109007789731896062370000003503429449883619968_">
			<use xlink:href="#SVGID_00000026124939110029100960000012046614021682050983_"  style="overflow:visible;"/>
		</clipPath>
		<g style="clip-path:url(#SVGID_00000109007789731896062370000003503429449883619968_);">
			<g>
				<g>
					<path style="fill:#5972BF;" d="M513.667,186.156c-7.949-1.772-13.932-2.161-23.417-2.785
						c-83.285-5.478-88.819,43.563-88.819,43.563l-16.384,250.46c0,0,70.016,14.845,128.62,8.859V186.156z"/>
					<path style="fill:#1C1C20;" d="M477.5,513.893c0,0,17.5-4.01,25-28.113c7.5-24.103,5.5-83.523,5.5-83.523l-30.5,5.388
						l-74.595,11.296l-15.719,80.15C387.186,499.092,417.5,525.003,477.5,513.893z"/>
				</g>
				<g>
					<path style="fill:#F3A8C1;" d="M486.802,366.666c0,0-61.352,42.298-64.077,57.066C420,438.5,428,469.5,437.5,493
						s10.214,36.156,10.214,36.156L491.5,527c0,0,1-48.021-8-90.76c0,0,19.094-11.632,21.891-16.946
						c2.796-5.313,2.851-63.817,2.851-63.817L486.802,366.666z"/>
					<g>
						<path style="fill:#F2E1C5;" d="M442.333,196.417c0,0-4.5,1.417-4.5,5.25c0,3.833-7.833,14.833-13.167,17
							C419.333,220.833,386,228,383.5,276l19.405,60.127L494,364.5c0,0,21-6.5,23.5-10.25l-1-157.925c0,0-17.984-2.751-23.734-2.251
							s-9.991-5.342-13.254-4.083L442.333,196.417z"/>
						<path style="fill:none;stroke:#1C1C20;stroke-linecap:round;stroke-linejoin:round;stroke-miterlimit:10;" d="
							M462.833,231.333c0,0,0.083,42.417,0,58.167c-0.083,15.75,2.976,59.635,3.424,59.693"/>
						<path style="fill:#1C1C20;" d="M419.75,268.75c0,0,7.5,49.5,8.25,63.5s0.75,14,0.75,14h-4.5L419.75,268.75z"/>
					</g>
					<g>
						<g>
							<path style="fill:#7B3E19;" d="M471.01,174.09c0,0,1.615-2.215,1.49-5.84s1-13.125,1-18s-5.5-27-17.625-24.875
								c0,0-2.625-0.875-5.375-1.875s-13.25-3.375-22.125,3.25s-11.625,18.125-11.25,23.125s3.375,11,4.875,11.625l27.357,11.875
								L471.01,174.09z"/>
							<path style="fill:none;stroke:#1C1C20;stroke-linecap:round;stroke-linejoin:round;stroke-miterlimit:10;" d="M452.25,140.25
								c0,0,0.113-6.876,1.5-11"/>
						</g>
						<g>
							<path style="fill:#F9A180;" d="M471.667,175.833c-1.42-3.766-2.518-6.704-3.34-8.917c0,0,0.048,6.334-3.782,13.708
								c-3.83,7.375-9.294,12.875-20.919,12.607c-1.388-0.032-2.686-0.233-3.901-0.561c0.273,1.626,1.481,8.896,1.776,11.995
								c0.333,3.5,1.547,7.667,7.857,9.833c6.31,2.167,13.143,12.333,13.476,16.833c0,0-0.5-13.667,4.167-17.333
								c4.667-3.667,16-6.833,16.167-19.333C483.167,194.667,475.5,186,471.667,175.833z"/>
						</g>
						<g>
							<g>
								<path style="fill:#1C1C20;" d="M468.327,166.917c0,0,0.048,6.333-3.782,13.708c-3.83,7.375-9.294,12.875-20.919,12.607
									c-1.409-0.033-2.726-0.238-3.957-0.574l-0.002,0.002c0,0-0.302-1.869,0,0c1.497,1.032,3.934,5.26,9.5,4.547
									C458.609,195.998,469.54,184.868,468.327,166.917C468.114,166.957,468.327,166.917,468.327,166.917z"/>
							</g>
							<g>
								<path style="fill:#F9A180;" d="M422.375,148.75c0,0-0.875,4.5,0,10.75s3.375,15.375,3.75,18.5s5.875,14.964,17.5,15.232
									s17.089-5.232,20.919-12.607c3.831-7.375,3.782-13.708,3.782-13.708s2.923,0.208,3.173-5.417s-3.61-8.875-5.243-7.75
									c-1.632,1.125,0.632,13.375,0,13.75c-0.632,0.375-1.543,0.625-1.713-0.25c-0.169-0.875-1.669-12-3.919-15.125
									s-7.875-8-8.625-10.5c0,0-8.25,8.875-16.625,9.125s-11.625-3.875-12.125-3.5S422.472,148.139,422.375,148.75z"/>
								<g>
									<g>
										<path style="fill:#1C1C20;" d="M455.5,157.75c0,0-5.5,0.375-8.125,1.75s-5.688,1.688-5.625-0.563
											c0.062-2.25,0.875-4.438,7.187-4.625c6.313-0.188,8.25,1.813,8.313,2.625C457.312,157.75,455.5,157.75,455.5,157.75z"/>
										<path style="fill:#1C1C20;" d="M423.273,164.566c0,0-0.193-1.48,2.56-1.775c2.822-0.302,5.601,0.508,5.354-2.212
											c-0.21-2.311-4.272-3.684-7.583-1.684c-1.298,0.784-1.034,1.541-0.917,2.313
											C422.804,161.98,423.273,164.566,423.273,164.566z"/>
									</g>
									<g>
										<circle style="fill:#1C1C20;" cx="448.917" cy="166.917" r="1.3"/>
										<circle style="fill:#1C1C20;" cx="428.75" cy="170.033" r="1.3"/>
									</g>
									<g>
										<path style="fill:#1C1C20;" d="M439.97,178.82c-0.731,0-1.353-0.184-1.858-0.552c-1-0.729-1.486-2.095-1.486-4.178
											c0-2.452-1.227-8.178-1.239-8.235c-0.058-0.27,0.114-0.536,0.384-0.594c0.273-0.057,0.536,0.113,0.595,0.383
											c0.051,0.239,1.261,5.887,1.261,8.446c0,1.716,0.361,2.85,1.075,3.369c0.632,0.46,1.605,0.482,2.897,0.064
											c0.263-0.081,0.544,0.06,0.629,0.323c0.085,0.263-0.06,0.544-0.322,0.629C441.192,178.705,440.547,178.82,439.97,178.82z"
											/>
										<path style="fill:#1C1C20;" d="M441.332,184.75c-0.247,0-0.463-0.184-0.495-0.436c-0.035-0.274,0.159-0.524,0.433-0.56
											c1.294-0.166,3.299-0.551,3.707-0.889c0.214-0.177,0.528-0.147,0.704,0.066c0.177,0.212,0.146,0.528-0.065,0.704
											c-0.776,0.644-3.65,1.038-4.219,1.111C441.375,184.749,441.353,184.75,441.332,184.75z"/>
									</g>
								</g>
							</g>
						</g>
					</g>
				</g>
				<g>
					<g>
						<polygon style="fill:#1C1C20;" points="407.5,434.65 496.543,370.795 496.519,355.476 462.138,379.363 402.905,418.942 						
							"/>
						<path style="fill:#F2E1C5;" d="M494.506,352.818l-90.217-11.578v76.777l57.85-38.654l33.366-22.294
							C497.296,355.871,496.643,353.092,494.506,352.818z"/>
					</g>
					<g>
						<path style="fill:#1C1C20;" d="M388.109,364.5l3.403-14.12l32.201-13.378l67.141,14.238c1.057,0.224,1.813,1.157,1.813,2.237
							v0.716c0,0.797-0.415,1.536-1.094,1.952l-35.955,21.977c-2.315,1.415-5.1,1.844-7.733,1.191L388.109,364.5z"/>
						<path style="fill:#1C1C20;" d="M461.205,370.992l-4.045-58.133c-0.233-3.349-2.751-6.093-6.068-6.612l-54.797-8.572
							l5.244,62.987l35.167,11.833L461.205,370.992z"/>
					</g>
				</g>
			</g>
			<g>
				<g>
					<path style="fill:#5972BF;" d="M219,275.5c0,0,8.5-31,85.5-31s101.5,51.5,103,59s19,115.5,0,189.5S202,528.5,202,528.5
						L219,275.5z"/>
					<path style="fill:#1C1C20;" d="M316,529.5l59.485-61.117c1.038-1.066,0.4-2.86-1.078-3.031l-25.956-3.011L336.5,472.5
						l-67.849,49.735L316,529.5z"/>
				</g>
				<g>
					<g>
						<g>
							<path style="fill:#1C1C20;" d="M362,280c0,0-3.667-13-13.333-23.333C339,246.333,330,234.667,325,208.333
								c-5-26.333-23-43-43.333-43C261.333,165.333,249.333,189,253,211c3.667,22-0.333,41.667-8.667,55L268,302.333L352.667,293
								L362,280z"/>
							<path style="fill:#E28450;" d="M259,233.833c0,0,4.333,23.833-9,27.833l1.667,24.667l43.548,13l14.425-38.002l-6.472-37.998
								L259,233.833z"/>
							<g>
								<g>
									<path style="fill:none;stroke:#F2E1C5;stroke-width:1.5;stroke-miterlimit:10;" d="M258.012,221.279
										c0,3.816-2.052,6.91-4.583,6.91s-4.583-3.094-4.583-6.91c0-3.816,2.052-6.91,4.583-6.91S258.012,217.462,258.012,221.279z"
										/>
									<path style="fill:#F2E1C5;" d="M249.405,229.595c0-2.222,1.801-4.023,4.023-4.023c2.222,0,4.023,1.801,4.023,4.023
										c0,2.222-1.801,4.023-4.023,4.023C251.207,233.618,249.405,231.817,249.405,229.595z"/>
								</g>
								<g>
									<path style="fill:#1C1C20;" d="M300.87,223.879L259,233.833c0,0,0.527,2.909,0.647,6.861c2.801,3.754,7,6.581,13.228,7.431
										C297.625,251.5,304,223.879,304,223.879H300.87z"/>
									<g>
										<path style="fill:#E28450;" d="M276.188,179.746c0,0,1.312,6.587,13.562,10.254c9.251,2.769,16.5,12.25,14.5,22
											s-2,9.75-2,9.75l2.326-2c0,0-2.567,22.237-28.068,22.239c-27.917,0.002-24.122-29.511-23.109-33.489
											c0.934-3.667-1.526-13.998,10.434-19.833C273.253,184.071,276.188,179.746,276.188,179.746z"/>
										<g>
											<g>
												<path style="fill:#1C1C20;" d="M296.667,206.167c0,0-6.5-3.333-9.5-3.333s-6.168-0.774-5.333-3.833
													c1-3.667,5.667-3,10-1.333c4.333,1.667,8.667,7.667,7.833,8.5C298.833,207,297.469,206.563,296.667,206.167z"/>
												<path style="fill:#1C1C20;" d="M253.821,203.487c0,0,4.512-1.687,7.845-2.003c3.333-0.317,4-3.166,1.667-5.158
													c-2.333-1.992-8.318,1.412-8.318,1.412S252.476,201.307,253.821,203.487z"/>
											</g>
											<path style="fill:none;stroke:#1C1C20;stroke-linecap:round;stroke-linejoin:round;stroke-miterlimit:10;" d="
												M271.333,204.167c0,0-0.667,7.833-3.167,11.167c-2.5,3.333-0.5,5.333,0.833,5.667"/>
											<g>
												<path style="fill:#1C1C20;" d="M285.5,210.167c0-0.921-0.746-1.667-1.667-1.667c-0.92,0-1.667,0.746-1.667,1.667
													c0,0.92,0.746,1.667,1.667,1.667C284.754,211.833,285.5,211.087,285.5,210.167z"/>
												<path style="fill:#1C1C20;" d="M261.258,209.201c0-0.921-0.746-1.667-1.667-1.667c-0.921,0-1.667,0.746-1.667,1.667
													c0,0.92,0.746,1.667,1.667,1.667C260.511,210.868,261.258,210.122,261.258,209.201z"/>
											</g>
											<g>
												<ellipse style="fill:#EE5C39;" cx="291.375" cy="217.5" rx="5.042" ry="2.667"/>
												<path style="fill:#EE5C39;" d="M254.447,213.365c-0.449,0-0.876,0.041-1.29,0.099c-0.096,1.515-0.124,3.26-0.019,5.132
													c0.42,0.06,0.854,0.102,1.31,0.102c2.784,0,5.042-1.194,5.042-2.667C259.488,214.559,257.231,213.365,254.447,213.365z"
													/>
											</g>
											<g>
												<path style="fill:#EE5C39;" d="M274.364,230.597c-2.771,0.55-4.585,0.578-6.188-0.125
													c-0.814-0.357-2.442-2.243-2.442-2.243l2.557-0.313l10.138,0.222C278.429,228.139,275.806,230.311,274.364,230.597z"/>
												<path style="fill:#B3452B;" d="M263.364,227.035c0,0,0.463,0.287,1.625,0.875c2.224,1.125,5.915,1.274,9.735,0.812
													c2.93-0.354,2.163-0.231,5.411-0.979c0.823-0.189,2.083-0.958,1.333-0.792c-0.75,0.167-1.333,0.54-4.417-0.022
													c-3.083-0.562-5.833-1.478-6.75-1.312c-0.917,0.167-1.5,0.667-1.5,0.667s-0.833-0.873-1.583-0.687
													c-0.75,0.187-3.083,1.187-4.167,1.103C261.968,226.618,263.364,227.035,263.364,227.035z"/>
											</g>
										</g>
									</g>
								</g>
								<g>
									<path style="fill:none;stroke:#F2E1C5;stroke-width:1.5;stroke-miterlimit:10;" d="M309.143,216.803
										c0.631-0.493,1.347-0.772,2.107-0.772c2.531,0,4.583,3.094,4.583,6.91c0,3.816-2.052,6.91-4.583,6.91"/>
									<path style="fill:#F2E1C5;" d="M307.227,231.258c0-2.222,1.801-4.023,4.023-4.023c2.222,0,4.023,1.801,4.023,4.023
										c0,2.222-1.801,4.023-4.023,4.023C309.028,235.281,307.227,233.48,307.227,231.258z"/>
									<path style="fill:#E28450;" d="M306.167,209.201c0,0,1.833-4.534,5.5-4.034c3.667,0.5,3.543,12.303-2.75,13.532
										C302.624,219.927,306.167,209.201,306.167,209.201z"/>
									
										<path style="fill:none;stroke:#F2E1C5;stroke-width:1.5;stroke-linecap:round;stroke-linejoin:round;stroke-miterlimit:10;" d="
										M311.25,229.851c-2.531,0-4.583-3.094-4.583-6.91c0-2.671,1.005-4.988,2.476-6.138"/>
								</g>
							</g>
						</g>
						<g>
							<path style="fill:#E28450;" d="M244.333,261.333c0,0-35-1-46.333,47c-11.333,48-7.333,61.667-23.667,78.667
								c-16.333,17-50.713,68.394-50,72.197c0.713,3.803,0,12.803,0,12.803s65-43.667,77.667-56.333
								c12.667-12.667,27.667-45,27.667-45L244.333,261.333z"/>
							<path style="fill:#D9CE55;" d="M340.068,421.086c0,0,30.566,37.471,6.265,69.843c-24.301,32.373-60.667,50.737-60.667,50.737
								L158.333,529.5l-34-20.5l99.821-102.667L333,411.667L340.068,421.086z"/>
							<g>
								<polygon style="fill:#1C1C20;" points="256.372,522.235 297.716,492.32 322.323,474.516 322.302,459.197 290.552,483.083 
									235.852,522.662 								"/>
								<g>
									<path style="fill:#F2E1C5;" d="M108.24,474.229l54.7-39.579l0,0l157.502,21.888c1.974,0.274,2.577,3.053,0.922,4.251
										l-30.812,22.294l-54.7,39.579H111.25L108.24,474.229z"/>
									<polygon style="fill:none;stroke:#000000;stroke-linecap:round;stroke-linejoin:round;stroke-miterlimit:10;" points="
										115.567,517.662 113.027,476.779 164.067,439.848 313.328,460.591 234.452,517.662 									"/>
								</g>
							</g>
							<g>
								<path style="fill:#1C1C20;" d="M347.481,469.653l-6.231-0.714c-2.449-0.28-4.298-2.353-4.298-4.818v-5.603l67.278-34.819
									l0.035,5.403c0.015,2.24-1.065,4.346-2.892,5.643l-46.524,33.014C352.711,469.277,350.086,469.951,347.481,469.653z"/>
								<path style="fill:#F2E1C5;" d="M348.022,459.786l-11.07-1.268l33.657-22.489l21.899-14.633l10.42,1.193
									c1.419,0.163,1.866,2.006,0.678,2.8l-49.144,32.837C352.567,459.492,350.285,460.045,348.022,459.786z"/>
							</g>
							<g>
								<path style="fill:#F2E1C5;" d="M253.428,259.959c0,0,0.03,25.375,20.134,26.708c20.104,1.333,31.91-15.952,36.077-25.335
									c0,0,16.694-0.665,28.028,4.002v85.333c0,0-0.321,48-8.827,63c0,0-15.506,9.506-51.506,7.42
									c-36-2.086-53.179-14.753-53.179-14.753S223.667,384,226,370c2.333-14,6-35.667,7-56.667s7.671-49.774,11.333-52
									L253.428,259.959z"/>
								<polygon style="fill:#1C1C20;" points="232.207,324.888 224.112,379.612 230.795,379.678 								"/>
							</g>
							<g>
								<path style="fill:#E28450;" d="M254,377c0,0-7.75-0.253-8.875-2.064c-1.125-1.811,0.75-2.561,3.5-2.686
									s6,0.125,12.875-2.875s21.625-5.875,33.25-3.625s31,14,39.625,15.5S346,382.996,346,382.996S335.5,343,332.5,329.25
									s-2.167-53.333,5.167-63.917c0,0,39.083,9.667,44.833,57.667s8.75,76.75,9,86.25s-3.357,22.724-8.529,25.4
									s-34.721-1.9-47.221-8.65s-32.583-29.651-32.583-29.651s-5.433-11.102-8.802-13.477C285.733,376.789,254,377,254,377z"/>
								<path style="fill:#1C1C20;" d="M336.148,344.547c-0.238-1.076-0.455-1.946-0.655-2.648
									C339.727,359.1,346,382.996,346,382.996s17.375,2.216,24.375,7.547C370.375,390.544,340.556,364.516,336.148,344.547z"/>
								<path style="fill:#1C1C20;" d="M294.364,382.872c4.24-3.503,4.761-7.936,4.761-7.936s-0.763,9.939-1.6,11.564
									C297.525,386.5,294.916,382.995,294.364,382.872z"/>
							</g>
							<path style="fill:#1C1C20;" d="M303.685,224.728c0,0-1.852,10.022-0.518,25.272c1.333,15.25-6.318,29.32-10.041,31.443
								c-3.723,2.123,6.957,3.557,13.541-7.193c0,0-3.083,9-4.75,10.5c-1.667,1.5,7.25,2.917,11.917-4
								c4.667-6.917,10.417-13.583,10.417-13.583s-0.917,7.5-3,9.75c-2.083,2.25,2.75,2,5.333,0.167
								C329.167,275.25,338.75,265,343.5,265.5s0-6.75,0-6.75l-32.25-13.675L303.685,224.728z"/>
						</g>
					</g>
					<g>
						<g>
							<path style="fill:#EE5C39;" d="M300,442.621c-3.799,11.803-16.167,19.719-26.491,20.59c-9.165,0.773-19.88,0.361-29.176,0.04
								c-9.13-0.316-17.017-1.704-23.426-3.384c-11.16-2.925-20.224-12.08-20.407-23.616l-1.623-33.943
								c-0.738-15.428,12-28.124,27.425-27.336l54.432,2.779c13.061,0.794,23.247,11.617,23.247,24.702
								C303.982,402.452,303.982,430.25,300,442.621z"/>
							
								<path style="fill:none;stroke:#1C1C20;stroke-width:2;stroke-linecap:round;stroke-linejoin:round;stroke-miterlimit:10;" d="
								M213.25,382.996c0,0-17.5,15.754-5.5,28.754s47.25,12.25,39.75,27s-8.333,50.001,35.167,54.501s53.681-1.711,55-10.806
								c1.319-9.095-12.516-24.994-24.339-32.934S327.5,398.25,291,386.5"/>
							<g>
								<path style="fill:none;stroke:#000000;stroke-linecap:round;stroke-linejoin:round;stroke-miterlimit:10;" d="
									M220.5,382.874c0,0,49.605-0.125,65.75,1.75"/>
							</g>
						</g>
						<g>
							<path style="fill:#E28450;" d="M297.667,378.083c0,0-4.75,7.333-7.5,10.167s-6.583,11.083-7.583,14.75
								s-1.75,5.167-2.917,5.083c-1.167-0.083-1.557-1.333-1.862-4.167c-0.305-2.833,0.367-14.793,0.862-16.667
								c0,0-5.25,9.333-6.333,12c-1.083,2.667-3.25,10.667-5.417,10.833c-2.167,0.167-1.25-4.417-1.5-6.917s3.583-17.854,3.75-20.17
								c0,0-5.167,18.67-6.25,21.504c-1.083,2.833-2.417,4.5-4.25,4.333c-1.833-0.167,0.25-7.802,0.667-12.484
								c0.417-4.683,2.083-14.016,2.333-14.599c0,0-4.833,9.75-6,13.333c-1.167,3.583-1.917,10.917-4.542,11.25
								c-2.625,0.333-1.125-7.092-1.125-10.046c0-2.954,2.156-15.666,4.995-19.852C257.833,372.25,270,371,270,371l24.917,3.936
								L297.667,378.083z"/>
							<g>
								<path style="fill:#F2E1C5;" d="M252.125,400.75c-0.749-0.582-2.414-0.418-2.42-0.417c-0.121,1.49-0.195,3.006-0.038,4.148
									c0.165,0.465,0.558,1.07,1.248,0.977C251.882,405.328,252.875,401.333,252.125,400.75z"/>
								<path style="fill:#F2E1C5;" d="M258.583,402.889c0,0,2.542-0.264,3.208,0.569c0.667,0.833-1.746,4.634-2.912,4.576
									c-1.166-0.057-0.866-2.576-0.843-2.781c0.023-0.205,0.334-2.404,0.334-2.404L258.583,402.889z"/>
								<path style="fill:#F2E1C5;" d="M265.464,404.25c0,0-0.024,3.461,0.013,3.785c0.038,0.324,0.439,0.881,1.189,0.756
									s1.833-3.333,1.917-4.125C268.667,403.875,266.053,403.292,265.464,404.25z"/>
								<path style="fill:#F2E1C5;" d="M277.743,402.85c0,0,0.279,3.154,0.533,3.793c0.254,0.638,1.724,0.711,2.057-0.361
									c0.333-1.073,0.529-3.085,0.556-3.391C280.917,402.583,278.736,401.658,277.743,402.85z"/>
								<path style="fill:#F2E1C5;" d="M248.625,372.25c-1.167,0.053-2.173,0.22-2.862,0.531c-0.002,0.003-0.381,0.531,2.112,0.594
									c2.5,0.063,3.89-0.53,4.195-1.296v0C250.745,372.209,249.65,372.203,248.625,372.25z"/>
							</g>
						</g>
					</g>
				</g>
			</g>
			<g>
				<path style="fill:#5972BF;" d="M-16.523,308.307c0,0,8.5-31,85.5-31s101.5,51.5,103,59S195.334,449.5,176.334,523.5
					s-209.858,37.808-209.858,37.808L-16.523,308.307z"/>
				<g>
					<path style="fill:#1C1C20;" d="M87.059,532.433l-6.979-0.799c-2.743-0.314-4.814-2.636-4.814-5.397v-6.276l75.357-39
						l0.04,6.052c0.016,2.509-1.193,4.868-3.239,6.32l-52.111,36.978C92.917,532.012,89.978,532.768,87.059,532.433z"/>
					<path style="fill:#F2E1C5;" d="M87.666,521.382l-12.399-1.42l37.698-25.189l24.529-16.39l11.671,1.337
						c1.59,0.182,2.09,2.247,0.759,3.136l-55.046,36.781C92.756,521.053,90.2,521.672,87.666,521.382z"/>
				</g>
				<g>
					<path style="fill:#1C1C20;" d="M36.334,294.5c0,0-2.5,5.833-7.333,10.333c-4.833,4.5,0,7.5,3.667,10s8.667,3.833,10.333,3
						c0,0-1.667,2.333,0,3.5c1.667,1.167,4.667,2.833,9.333,3.167c4.667,0.333,11-28.833,11-28.833L36.334,294.5z"/>
					<g>
						<path style="fill:#7B3E19;" d="M42.251,324.503c0,0,5.25-0.003,6.5-2.253s3.25-15,2.25-20.25l41-12l10.25,36.75
							c0,0,37.083,0.342,45.75,40.629c8.667,40.287,1.54,107.664-14.687,122.54c-16.227,14.877-72.979,32.414-82.313,38.08
							c-9.333,5.667-26.667-11.338-26.667-11.338s28.333-21.47,40.333-31.733s33.667-27.278,33.667-27.278
							s1.333-59.985,1.333-64.985l-80.333,16.911c0,0,8.603,90.005-14.667,92.422c-15.585,1.619-10.058-59.379-10.058-59.379
							S-7.166,329.339,42.251,324.503z"/>
						<path style="fill:#F3A8C1;" d="M99.334,330.666c0,0-10.333,29.333,0.333,62l-1.333,64.985l-74,59.011L4.668,502
							c0,0,13.333-54,15-70.333c1.667-16.333-4.667-31.302-1.667-41.318c3-10.016,18.508-53.696,25.667-65.846l2.02-0.428
							c0,0-11.436,25.425,12.064,30.425s39.333-24.667,39.333-24.667L99.334,330.666z"/>
					</g>
					<g>
						<path style="fill:#1C1C20;" d="M78.401,296.157c0.743-1.042,1.168-1.887,1.33-2.566L51.001,302
							c0.205,1.073,0.282,2.463,0.268,4.009C56.963,306.422,71.157,306.318,78.401,296.157z"/>
						<g>
							<path style="fill:#7B3E19;" d="M41.876,251.125c0,0-2.125,7.25-4.5,11.625s-7.375,13.75-4.625,22.125s4.25,11.75,9.75,15.125
								s22.5,4.5,37-4.5l7.25-9.25l7.5-15.75L65.876,238H55.501L41.876,251.125z"/>
							<g>
								<path style="fill:#B3452B;" d="M35.439,285.687c0,0,1.375,0.688,3.75,1.438s6.187,1.625,9.625,1.25
									c0,0-3.375-0.563-4.688-1.625s-2.812-2.063-3.625-1.813s-1.688,0.688-1.938,0.5s-0.875-1.5-1.625-1.438
									S34.578,285.302,35.439,285.687z"/>
								<g>
									<path style="fill:none;stroke:#1C1C20;stroke-linecap:round;stroke-linejoin:round;stroke-miterlimit:10;" d="M55.876,268
										c0,0-2.125,3.125-2.75,3.25c0,0,5.088,2.75,9.732,2.875"/>
									<path style="fill:none;stroke:#1C1C20;stroke-linecap:round;stroke-linejoin:round;stroke-miterlimit:10;" d="
										M44.126,264.25c0,0-1.5,4.375-4.125,7.625c-2.625,3.25-4.625,5.25-3.25,6.875s4.625,1.875,4.625,1.875"/>
									<path style="fill:none;stroke:#1C1C20;stroke-linecap:round;stroke-linejoin:round;stroke-miterlimit:10;" d="
										M39.084,267.25c0,0-3.451-0.75-3.892-1.417c0,0,1.846-2.438,2.184-3.083"/>
								</g>
								<g>
									<path style="fill:#B3452B;" d="M70.853,281.295c-0.2,1.969-3.315,3.265-6.958,2.895c-3.643-0.37-6.434-2.266-6.233-4.235
										c0.2-1.969,3.315-3.265,6.958-2.895C68.262,277.43,71.053,279.326,70.853,281.295z"/>
									<path style="fill:#B3452B;" d="M36.274,271.38c0.181-1.035-0.486-2.108-1.687-2.983c-0.711,1.666-1.382,3.5-1.868,5.431
										C34.651,273.52,36.055,272.634,36.274,271.38z"/>
								</g>
								<g>
									<path style="fill:#1C1C20;" d="M67.751,268.75c0,0-7.375-3.5-9.75-4.25s-3.375-2-2.5-3.125s3.572-1.875,7.598,0.75
										c4.027,2.625,7.777,6.75,7.402,7.375S67.751,268.75,67.751,268.75z"/>
									<path style="fill:#1C1C20;" d="M38.545,260.343c0,0,2.894,0.219,4.081,0.469c1.188,0.25,2.188-2.313,0.688-3
										s-3.377,0.122-3.845,0.311C39.001,258.312,38.339,259.437,38.545,260.343z"/>
								</g>
							</g>
						</g>
					</g>
					<path style="fill:#1C1C20;" d="M56.126,242.375c0,0.375,1.042,5.25,7.208,9.5c6.167,4.25,15.417,12,16.542,20.563
						c0,0-1.75,7.313-1.625,8.188s1.375-1.75,3.25-4.375s4.566-6.213,7.625-3.813c3.059,2.4,0,15.4-9.375,13.794
						c0,0-2.125,1.269-2.625,5.144s-1.25,18.125-7.25,24.375s-8.958,7.25-6.542,9.625c2.417,2.375,10.042,7.625,21.792,7.375
						s10.625-4.375,10.625-4.375s-1,4.5-3.5,5.625s21.75,2.625,31.375-6.375s5.375-16.375,5.375-16.375s4.75-1.125,4-4.25
						s-6.625-10-10.25-24.5s-9.625-46.75-32.5-53.375s-38.074,1.125-45.1,9.375c-7.025,8.25-3.864,14.51-3.864,14.51
						s2.713-4.385,6.213-5.385S56.126,242.375,56.126,242.375z"/>
					<g>
						<path style="fill:#F2E1C5;" d="M84.827,280.598c-0.575,1.285-1.808,1.984-2.753,1.56c-0.945-0.423-1.245-1.808-0.67-3.093
							c0.575-1.285,1.808-1.983,2.753-1.56C85.102,277.928,85.402,279.313,84.827,280.598z"/>
						<g>
							<path style="fill:none;stroke:#F2E1C5;stroke-linecap:round;stroke-linejoin:round;stroke-miterlimit:10;" d="
								M82.418,281.416c0,0-6.417,5.667-8.333,8.583c-1.917,2.917-2.313,7.1-16.093,22.333
								c-12.438,13.75,13.432,28.152,6.265,41.772c-7.167,13.62-20.131,42.611-11.131,85.742c9,43.131-28.625,59.281-35.125,63.819"
								/>
							<path style="fill:none;stroke:#F2E1C5;stroke-linecap:round;stroke-linejoin:round;stroke-miterlimit:10;" d="M42.501,300
								c0,0-5.554,14.809-2.286,28.5c3.268,13.691-3.528,40.155-7.496,47.328c0,0-13.444,42.473,19.418,58.823"/>
						</g>
					</g>
				</g>
			</g>
		</g>
	</g>
</g>
</svg>
